<svg width="150" height="80" viewBox="0 0 150 80" fill="none" xmlns="http://www.w3.org/2000/svg">
<g clip-path="url(#clip0_412_1085)">
<path fill-rule="evenodd" clip-rule="evenodd" d="M27.5127 20.3373C8.15541 19.7421 0 30.8933 0 43.7931C0 56.7432 10.274 72.4138 27.7397 68.2759C31.0738 68.2759 34.2704 67.7297 37.2316 66.7416C39.8699 73.8786 46.2342 80 52.7397 80C58.5045 80 63.6871 77.1524 66.3251 71.6717C69.1288 73.8559 72.7534 75.1724 76.7123 75.1724C82.0288 75.1724 86.7438 72.7979 89.6747 69.1366C92.7767 74.7628 101.01 80 110.555 80C121.671 80 132.612 70.5441 132.534 63.6681C133.527 63.9485 134.558 64.0963 135.616 64.0963C143.685 64.7852 150 56.863 150 45.4964C150 35.224 143.56 26.8966 135.616 26.8966C134.406 26.8966 133.231 27.0899 132.108 27.4539C129.52 21.7062 125.155 17.931 120.205 17.931C117.788 17.931 115.511 18.8313 113.512 20.4219C109.611 8.64303 96.7596 0 81.5069 0C67.7242 0 55.9019 6.03291 50.8732 16.3443C48.1986 13.9019 44.6486 12.4138 40.7534 12.4138C35.0388 12.4138 30.0671 15.6169 27.5127 20.3373Z" fill="#1AA2E0"/>
<path d="M78.4789 33.0292V38.6083C77.7844 37.832 77.0892 37.2647 76.3946 36.9064C75.7083 36.5396 74.9713 36.3562 74.1837 36.3562C72.7261 36.3562 71.5439 36.8595 70.6378 37.8661C69.7398 38.8643 69.2905 40.1695 69.2905 41.7818C69.2905 43.2832 69.7481 44.5287 70.6631 45.5183C71.5864 46.5079 72.7597 47.0027 74.1837 47.0027C74.9713 47.0027 75.7083 46.8236 76.3946 46.4653C77.0892 46.0985 77.7844 45.5226 78.4789 44.7378V50.3298C77.6741 50.7222 76.8734 51.0165 76.0768 51.2127C75.2802 51.4089 74.4755 51.507 73.6624 51.507C72.6453 51.507 71.7049 51.3834 70.8412 51.1359C69.985 50.8971 69.1974 50.5303 68.4772 50.0354C67.0877 49.0971 66.0286 47.9155 65.3 46.4909C64.5713 45.0662 64.207 43.4624 64.207 41.6794C64.207 40.2463 64.4358 38.9453 64.8933 37.7765C65.3593 36.5993 66.0583 35.5329 66.9902 34.5775C67.8714 33.6647 68.8624 32.9822 69.9638 32.53C71.0741 32.0779 72.307 31.8518 73.6624 31.8518C74.4755 31.8518 75.2802 31.95 76.0768 32.1462C76.8734 32.3424 77.6741 32.6367 78.4789 33.0292ZM81.1481 51.0336V31.1992H85.685V51.0336H81.1481ZM98.2665 44.6098C98.2665 43.6458 98.0248 42.8865 97.5419 42.332C97.059 41.7776 96.407 41.5003 95.585 41.5003C94.7542 41.5003 94.098 41.7776 93.6152 42.332C93.1405 42.8865 92.9035 43.6458 92.9035 44.6098C92.9035 45.5738 93.1405 46.333 93.6152 46.8876C94.0891 47.4335 94.746 47.7065 95.585 47.7065C96.4152 47.7065 97.0672 47.4335 97.5419 46.8876C98.0248 46.333 98.2665 45.5738 98.2665 44.6098ZM102.765 44.6098C102.765 45.5397 102.583 46.4226 102.219 47.2587C101.863 48.0947 101.342 48.8454 100.656 49.5108C99.9611 50.1762 99.1816 50.6796 98.3172 51.0207C97.4618 51.362 96.5508 51.5326 95.585 51.5326C94.6022 51.5326 93.6782 51.362 92.8145 51.0207C91.9583 50.6796 91.1919 50.1762 90.5138 49.5108C89.8364 48.8625 89.3193 48.1203 88.9638 47.2843C88.6076 46.4397 88.4296 45.5482 88.4296 44.6098C88.4296 43.6629 88.6035 42.7714 88.9508 41.9354C89.307 41.0994 89.8275 40.3486 90.5138 39.6832C91.1837 39.0263 91.946 38.5316 92.8015 38.1988C93.6659 37.8661 94.5933 37.6998 95.585 37.6998C96.5761 37.6998 97.4994 37.8661 98.3556 38.1988C99.2111 38.5316 99.9775 39.0263 100.656 39.6832C101.35 40.3571 101.875 41.1121 102.232 41.9482C102.587 42.7842 102.765 43.6714 102.765 44.6098ZM118.536 38.1093V44.7122C118.536 46.1709 118.418 47.2544 118.181 47.9625C117.952 48.662 117.562 49.2847 117.012 49.8307C116.444 50.4023 115.736 50.8288 114.889 51.1103C114.042 51.3918 113.047 51.5326 111.903 51.5326C110.767 51.5326 109.776 51.3918 108.929 51.1103C108.09 50.8288 107.374 50.4023 106.781 49.8307C106.23 49.3018 105.841 48.6833 105.612 47.9752C105.383 47.2587 105.269 46.1709 105.269 44.7122V38.1093H109.59V45.0065C109.59 46.0899 109.768 46.8747 110.123 47.361C110.48 47.8387 111.056 48.0776 111.852 48.0776C112.657 48.0776 113.233 47.843 113.58 47.3738C113.936 46.8961 114.114 46.1069 114.114 45.0065V38.1093H118.536ZM131.601 44.5842C131.601 43.5776 131.334 42.7842 130.801 42.2041C130.275 41.624 129.555 41.3339 128.64 41.3339C127.725 41.3339 127.005 41.624 126.48 42.2041C125.954 42.7842 125.692 43.5776 125.692 44.5842C125.692 45.5994 125.95 46.397 126.467 46.9772C126.992 47.5487 127.717 47.8345 128.64 47.8345C129.555 47.8345 130.275 47.5445 130.801 46.9643C131.334 46.3843 131.601 45.5909 131.601 44.5842ZM135.617 31.1992V51.0336H131.449V48.9349C130.873 49.8052 130.225 50.4577 129.504 50.8928C128.784 51.3194 127.984 51.5326 127.102 51.5326C125.298 51.5326 123.862 50.9056 122.794 49.6516C121.727 48.3975 121.193 46.7084 121.193 44.5842C121.193 42.5283 121.722 40.869 122.782 39.6065C123.849 38.3354 125.238 37.6998 126.95 37.6998C128.034 37.6998 128.915 37.896 129.593 38.2884C130.28 38.6808 130.89 39.3377 131.423 40.2591C131.373 39.9519 131.334 39.6065 131.309 39.2225C131.284 38.8301 131.271 38.4078 131.271 37.9557V31.1992H135.617Z" fill="white"/>
<path d="M67.6868 54.296L66.0045 57.0909V59.3101H65.3423V57.1617L63.6602 54.296H64.3959L65.6802 56.5084L66.9845 54.296H67.6868ZM71.0346 57.4311C71.0346 58.0642 70.8832 58.5536 70.5798 58.8993C70.2764 59.2427 69.873 59.4145 69.3689 59.4145C68.8497 59.4145 68.4406 59.2371 68.1418 58.8825C67.8452 58.5255 67.6969 58.0417 67.6969 57.4311C67.6969 56.8025 67.8497 56.3142 68.1552 55.9662C68.4628 55.6182 68.8675 55.4442 69.3689 55.4442C69.873 55.4442 70.2764 55.6182 70.5798 55.9662C70.8832 56.312 71.0346 56.8002 71.0346 57.4311ZM70.386 57.4311C70.386 56.9439 70.2976 56.5825 70.1216 56.3467C69.9456 56.1088 69.6949 55.9898 69.3689 55.9898C69.0415 55.9898 68.788 56.1088 68.61 56.3467C68.4339 56.5825 68.3458 56.9439 68.3458 57.4311C68.3458 57.9025 68.4339 58.2606 68.61 58.5053C68.788 58.7478 69.0415 58.869 69.3689 58.869C69.6921 58.869 69.9421 58.75 70.1182 58.512C70.2969 58.2718 70.386 57.9115 70.386 57.4311ZM74.4531 59.3101H73.8243V58.8925C73.6298 59.0631 73.4463 59.1933 73.2723 59.2831C73.0983 59.3707 72.9045 59.4145 72.6901 59.4145C72.5278 59.4145 72.3737 59.3876 72.2284 59.3337C72.086 59.2798 71.9613 59.1945 71.8545 59.0778C71.7469 58.961 71.6634 58.814 71.6031 58.6366C71.5456 58.4593 71.5161 58.2438 71.5161 57.99V55.5487H72.1449V57.6904C72.1449 57.8902 72.1517 58.0563 72.1654 58.1887C72.1805 58.3189 72.2141 58.4334 72.2654 58.5322C72.3168 58.6287 72.386 58.6995 72.473 58.7444C72.562 58.7893 72.6894 58.8117 72.8545 58.8117C73.0079 58.8117 73.1716 58.768 73.3456 58.6804C73.5195 58.5929 73.6791 58.4851 73.8243 58.3571V55.5487H74.4531V59.3101ZM77.2052 56.2289H77.1716C77.125 56.2154 77.075 56.2076 77.0216 56.2053C76.9702 56.2008 76.9079 56.1986 76.8339 56.1986C76.6647 56.1986 76.4963 56.2356 76.3291 56.3097C76.162 56.3838 76.0038 56.4938 75.8545 56.6397V59.3101H75.2257V55.5487H75.8545V56.1076C76.0839 55.9033 76.2832 55.7597 76.4531 55.6766C76.6243 55.5913 76.7908 55.5487 76.951 55.5487C77.0161 55.5487 77.0641 55.5509 77.0949 55.5554C77.1284 55.5576 77.1654 55.5621 77.2052 55.5689V56.2289ZM82.988 57.7712C82.988 58.0204 82.9415 58.2404 82.8476 58.4312C82.7538 58.622 82.6278 58.7791 82.4695 58.9027C82.2826 59.0508 82.0819 59.1563 81.8675 59.2192C81.6538 59.2798 81.3771 59.3101 81.038 59.3101H79.61V54.296H80.9312C81.286 54.296 81.551 54.3083 81.7271 54.333C81.9058 54.3555 82.0764 54.4105 82.2387 54.498C82.4175 54.5945 82.5476 54.7214 82.6305 54.8785C82.7127 55.0334 82.7538 55.2164 82.7538 55.4274C82.7538 55.6631 82.6915 55.8742 82.5668 56.0605C82.4442 56.2469 82.2737 56.3928 82.0552 56.4983V56.5252C82.3517 56.606 82.5812 56.7542 82.7442 56.9697C82.9065 57.183 82.988 57.4502 82.988 57.7712ZM82.0647 55.5217C82.0647 55.4005 82.0449 55.2961 82.0045 55.2085C81.9647 55.1187 81.8997 55.048 81.8106 54.9964C81.7038 54.9358 81.5846 54.8987 81.4531 54.8853C81.3216 54.8718 81.1394 54.8651 80.9079 54.8651H80.2723V56.3333H81.025C81.2326 56.3333 81.3853 56.3231 81.4832 56.3029C81.5812 56.2805 81.6826 56.2356 81.7874 56.1682C81.888 56.1031 81.9593 56.0178 82.0017 55.9123C82.0435 55.8068 82.0647 55.6766 82.0647 55.5217ZM82.299 57.7981C82.299 57.6096 82.2723 57.4547 82.2189 57.3334C82.1654 57.21 82.0572 57.1056 81.8942 57.0202C81.7894 56.9641 81.675 56.9282 81.5497 56.9125C81.4271 56.8968 81.2524 56.8889 81.025 56.8889H80.2723V58.741H80.8106C81.101 58.741 81.3291 58.7276 81.4963 58.7006C81.6634 58.6736 81.8106 58.6164 81.938 58.5289C82.0627 58.4413 82.1545 58.3425 82.212 58.2325C82.2702 58.1202 82.299 57.9755 82.299 57.7981ZM86.373 59.3101H85.7442V58.8925C85.5497 59.0631 85.3661 59.1933 85.1921 59.2831C85.0182 59.3707 84.8243 59.4145 84.61 59.4145C84.4476 59.4145 84.2935 59.3876 84.149 59.3337C84.0058 59.2798 83.8812 59.1945 83.7743 59.0778C83.6668 58.961 83.5832 58.814 83.523 58.6366C83.4654 58.4593 83.4367 58.2438 83.4367 57.99V55.5487H84.0647V57.6904C84.0647 57.8902 84.0716 58.0563 84.0853 58.1887C84.101 58.3189 84.1339 58.4334 84.1853 58.5322C84.2367 58.6287 84.3058 58.6995 84.3928 58.7444C84.4819 58.7893 84.6093 58.8117 84.7743 58.8117C84.9278 58.8117 85.0921 58.768 85.2654 58.6804C85.4394 58.5929 85.599 58.4851 85.7442 58.3571V55.5487H86.373V59.3101ZM88.1552 59.401C87.9058 59.401 87.6716 59.3673 87.4531 59.3C87.2367 59.2327 87.0572 59.1608 86.9147 59.0845V58.374H86.9483C87.0017 58.4166 87.0641 58.4638 87.1353 58.5154C87.2093 58.567 87.3058 58.6209 87.4264 58.677C87.5332 58.7264 87.6504 58.7702 87.7778 58.8084C87.9065 58.8465 88.0408 58.8656 88.1791 58.8656C88.2791 58.8656 88.386 58.8544 88.4997 58.8319C88.6134 58.8072 88.6983 58.7769 88.7538 58.741C88.8319 58.6893 88.888 58.6344 88.9216 58.576C88.9572 58.5176 88.975 58.4301 88.975 58.3133C88.975 58.1629 88.9332 58.0496 88.8511 57.9732C88.7709 57.8969 88.6271 57.8329 88.4195 57.7813C88.3394 57.7611 88.2346 57.7375 88.1052 57.7106C87.9757 57.6836 87.8565 57.6545 87.7476 57.623C87.462 57.54 87.2545 57.412 87.125 57.2391C86.9963 57.064 86.9312 56.853 86.9312 56.606C86.9312 56.2671 87.0586 55.9909 87.3127 55.7776C87.5668 55.5644 87.9045 55.4578 88.3257 55.4578C88.5332 55.4578 88.7415 55.4836 88.9511 55.5352C89.1606 55.5868 89.3374 55.6519 89.4798 55.7305V56.4073H89.4462C89.286 56.2794 89.1065 56.1784 88.9079 56.1043C88.712 56.0302 88.5134 55.9931 88.3127 55.9931C88.1052 55.9931 87.9305 56.0369 87.7873 56.1245C87.6449 56.212 87.5737 56.3445 87.5737 56.5218C87.5737 56.679 87.6161 56.7969 87.7004 56.8754C87.7853 56.9518 87.9216 57.0146 88.1086 57.064C88.2024 57.0887 88.3058 57.1134 88.4195 57.1381C88.5353 57.1605 88.6572 57.1875 88.7839 57.2189C89.0606 57.2885 89.2682 57.4041 89.4065 57.5658C89.5469 57.7274 89.6168 57.9474 89.6168 58.2258C89.6168 58.3874 89.5846 58.5412 89.5202 58.6871C89.4572 58.8308 89.3647 58.9542 89.2421 59.0576C89.1086 59.1698 88.9572 59.2551 88.7874 59.3135C88.6202 59.3718 88.4093 59.401 88.1552 59.401ZM90.7072 59.3101H90.0784V55.5487H90.7072V59.3101ZM90.751 54.9189H90.0353V54.2623H90.751V54.9189ZM94.4298 59.3101H93.801V57.1684C93.801 56.9956 93.7921 56.835 93.7743 56.6869C93.7586 56.5364 93.7278 56.4163 93.6805 56.3265C93.6291 56.2322 93.5579 56.1627 93.4668 56.1178C93.375 56.0706 93.2504 56.0471 93.0922 56.0471C92.936 56.0471 92.7743 56.0897 92.6072 56.175C92.4421 56.258 92.2805 56.3669 92.1223 56.5016V59.3101H91.4935V55.5487H92.1223V55.9662C92.3093 55.7978 92.4942 55.6688 92.6771 55.5789C92.86 55.4891 93.0531 55.4442 93.2558 55.4442C93.6237 55.4442 93.9113 55.5666 94.1189 55.8114C94.3264 56.0538 94.4298 56.4062 94.4298 56.8687V59.3101ZM96.7976 59.3977C96.2024 59.3977 95.7401 59.2293 95.4099 58.8925C95.0819 58.5536 94.9182 58.0731 94.9182 57.4513C94.9182 56.8384 95.0778 56.3512 95.3963 55.9898C95.7154 55.6261 96.1319 55.4442 96.6469 55.4442C96.8791 55.4442 97.0839 55.478 97.2627 55.5453C97.4408 55.6127 97.5969 55.7182 97.7305 55.8618C97.8647 56.0055 97.9675 56.1818 98.0387 56.3905C98.11 56.5971 98.1456 56.8507 98.1456 57.1516V57.4951H95.5572C95.5572 57.9328 95.6661 58.2673 95.8846 58.4985C96.1031 58.7298 96.4052 58.8454 96.7908 58.8454C96.9291 58.8454 97.0641 58.8297 97.1956 58.7982C97.3298 58.7668 97.4497 58.7264 97.5572 58.677C97.6709 58.6254 97.7668 58.576 97.8442 58.5289C97.9223 58.4795 97.9874 58.4334 98.0387 58.3908H98.075V59.0811C98.0017 59.1103 97.91 59.1473 97.8011 59.1922C97.6915 59.2349 97.5935 59.2686 97.5065 59.2933C97.3839 59.3269 97.273 59.3527 97.1723 59.3707C97.0743 59.3887 96.9497 59.3977 96.7976 59.3977ZM97.5332 57.0101C97.5291 56.8395 97.5093 56.6925 97.473 56.569C97.4374 56.4456 97.3867 56.3411 97.3195 56.2558C97.2456 56.1616 97.151 56.0897 97.0353 56.0403C96.9216 55.9909 96.7798 55.9662 96.6106 55.9662C96.4435 55.9662 96.3004 55.992 96.1826 56.0437C96.0661 56.0931 95.9606 56.166 95.8647 56.2626C95.7709 56.3613 95.6997 56.4713 95.6504 56.5926C95.6017 56.7116 95.5702 56.8507 95.5572 57.0101H97.5332ZM99.6538 59.401C99.4045 59.401 99.1702 59.3673 98.9517 59.3C98.7353 59.2327 98.5558 59.1608 98.4134 59.0845V58.374H98.4469C98.5004 58.4166 98.5627 58.4638 98.6339 58.5154C98.7072 58.567 98.8045 58.6209 98.925 58.677C99.0319 58.7264 99.149 58.7702 99.2764 58.8084C99.4052 58.8465 99.5394 58.8656 99.6771 58.8656C99.7778 58.8656 99.8846 58.8544 99.9983 58.8319C100.112 58.8072 100.197 58.7769 100.252 58.741C100.331 58.6893 100.387 58.6344 100.42 58.576C100.456 58.5176 100.474 58.4301 100.474 58.3133C100.474 58.1629 100.432 58.0496 100.35 57.9732C100.27 57.8969 100.126 57.8329 99.9182 57.7813C99.838 57.7611 99.7332 57.7375 99.6038 57.7106C99.4743 57.6836 99.3552 57.6545 99.2462 57.623C98.9606 57.54 98.7531 57.412 98.6236 57.2391C98.4949 57.064 98.4298 56.853 98.4298 56.606C98.4298 56.2671 98.5572 55.9909 98.8113 55.7776C99.0654 55.5644 99.4031 55.4578 99.8243 55.4578C100.032 55.4578 100.24 55.4836 100.45 55.5352C100.659 55.5868 100.836 55.6519 100.978 55.7305V56.4073H100.945C100.785 56.2794 100.605 56.1784 100.407 56.1043C100.21 56.0302 100.012 55.9931 99.8113 55.9931C99.6038 55.9931 99.4284 56.0369 99.286 56.1245C99.1435 56.212 99.0723 56.3445 99.0723 56.5218C99.0723 56.679 99.1147 56.7969 99.199 56.8754C99.2839 56.9518 99.4195 57.0146 99.6072 57.064C99.701 57.0887 99.8045 57.1134 99.9182 57.1381C100.034 57.1605 100.156 57.1875 100.283 57.2189C100.559 57.2885 100.767 57.4041 100.904 57.5658C101.046 57.7274 101.115 57.9474 101.115 58.2258C101.115 58.3874 101.083 58.5412 101.018 58.6871C100.956 58.8308 100.863 58.9542 100.741 59.0576C100.607 59.1698 100.456 59.2551 100.286 59.3135C100.119 59.3718 99.9079 59.401 99.6538 59.401ZM102.574 59.401C102.324 59.401 102.09 59.3673 101.872 59.3C101.655 59.2327 101.476 59.1608 101.333 59.0845V58.374H101.366C101.42 58.4166 101.483 58.4638 101.554 58.5154C101.627 58.567 101.724 58.6209 101.845 58.677C101.952 58.7264 102.069 58.7702 102.196 58.8084C102.325 58.8465 102.459 58.8656 102.597 58.8656C102.698 58.8656 102.804 58.8544 102.918 58.8319C103.032 58.8072 103.117 58.7769 103.172 58.741C103.25 58.6893 103.306 58.6344 103.339 58.576C103.375 58.5176 103.393 58.4301 103.393 58.3133C103.393 58.1629 103.352 58.0496 103.27 57.9732C103.189 57.8969 103.046 57.8329 102.838 57.7813C102.758 57.7611 102.653 57.7375 102.524 57.7106C102.394 57.6836 102.275 57.6545 102.165 57.623C101.88 57.54 101.673 57.412 101.544 57.2391C101.414 57.064 101.35 56.853 101.35 56.606C101.35 56.2671 101.477 55.9909 101.731 55.7776C101.985 55.5644 102.323 55.4578 102.744 55.4578C102.952 55.4578 103.16 55.4836 103.37 55.5352C103.579 55.5868 103.755 55.6519 103.898 55.7305V56.4073H103.865C103.704 56.2794 103.525 56.1784 103.326 56.1043C103.13 56.0302 102.932 55.9931 102.731 55.9931C102.524 55.9931 102.348 56.0369 102.206 56.1245C102.063 56.212 101.992 56.3445 101.992 56.5218C101.992 56.679 102.034 56.7969 102.119 56.8754C102.204 56.9518 102.339 57.0146 102.527 57.064C102.621 57.0887 102.724 57.1134 102.838 57.1381C102.954 57.1605 103.076 57.1875 103.202 57.2189C103.479 57.2885 103.687 57.4041 103.824 57.5658C103.965 57.7274 104.035 57.9474 104.035 58.2258C104.035 58.3874 104.003 58.5412 103.938 58.6871C103.876 58.8308 103.783 58.9542 103.661 59.0576C103.527 59.1698 103.375 59.2551 103.206 59.3135C103.039 59.3718 102.828 59.401 102.574 59.401ZM105.701 58.3504L104.765 60.556H104.276L104.865 58.3504H105.701ZM111.996 54.8718C112.185 55.0918 112.332 55.3646 112.437 55.6901C112.541 56.0156 112.594 56.3871 112.594 56.8047C112.594 57.2111 112.543 57.5781 112.44 57.9059C112.337 58.2336 112.189 58.5087 111.996 58.7309C111.792 58.9644 111.555 59.1372 111.283 59.2495C111.013 59.3595 110.715 59.4145 110.39 59.4145C110.053 59.4145 109.75 59.3573 109.48 59.2427C109.211 59.1282 108.978 58.9576 108.785 58.7309C108.593 58.5087 108.446 58.2348 108.344 57.9093C108.241 57.5837 108.189 57.2156 108.189 56.8047C108.189 56.3827 108.241 56.0122 108.344 55.6935C108.448 55.3747 108.596 55.1008 108.788 54.8718C108.98 54.6496 109.211 54.4811 109.48 54.3667C109.752 54.25 110.056 54.1916 110.39 54.1916C110.729 54.1916 111.035 54.2511 111.307 54.37C111.578 54.489 111.808 54.6563 111.996 54.8718ZM111.905 56.8047C111.905 56.4725 111.87 56.1784 111.798 55.9225C111.726 55.6665 111.626 55.4544 111.497 55.286C111.365 55.1131 111.206 54.984 111.019 54.8987C110.834 54.8112 110.625 54.7674 110.394 54.7674C110.152 54.7674 109.942 54.81 109.761 54.8953C109.583 54.9785 109.424 55.1087 109.287 55.286C109.154 55.4566 109.053 55.671 108.982 55.9292C108.913 56.1873 108.878 56.4792 108.878 56.8047C108.878 57.4625 109.015 57.9665 109.289 58.3167C109.564 58.6647 109.932 58.8387 110.394 58.8387C110.855 58.8387 111.222 58.6647 111.494 58.3167C111.768 57.9665 111.905 57.4625 111.905 56.8047ZM116.072 59.3101H115.444V57.1684C115.444 56.9956 115.435 56.835 115.417 56.6869C115.401 56.5364 115.37 56.4163 115.323 56.3265C115.272 56.2322 115.2 56.1627 115.109 56.1178C115.017 56.0706 114.893 56.0471 114.735 56.0471C114.578 56.0471 114.417 56.0897 114.25 56.175C114.085 56.258 113.923 56.3669 113.765 56.5016V59.3101H113.136V55.5487H113.765V55.9662C113.952 55.7978 114.137 55.6688 114.32 55.5789C114.502 55.4891 114.696 55.4442 114.898 55.4442C115.266 55.4442 115.554 55.5666 115.761 55.8114C115.969 56.0538 116.072 56.4062 116.072 56.8687V59.3101ZM120.818 59.401C120.493 59.401 120.193 59.346 119.919 59.236C119.646 59.126 119.411 58.9621 119.213 58.7444C119.015 58.5266 118.861 58.255 118.751 57.9294C118.642 57.6039 118.587 57.2301 118.587 56.8081C118.587 56.3882 118.64 56.0223 118.745 55.7103C118.852 55.3982 119.007 55.1266 119.209 54.8953C119.408 54.6709 119.644 54.5002 119.915 54.3835C120.187 54.2645 120.491 54.2051 120.828 54.2051C120.996 54.2051 121.152 54.2174 121.296 54.2421C121.444 54.2668 121.58 54.2982 121.704 54.3364C121.811 54.37 121.921 54.4127 122.033 54.4643C122.146 54.5137 122.257 54.5687 122.367 54.6293V55.4342H122.313C122.255 55.3803 122.181 55.3152 122.089 55.2389C121.998 55.1625 121.886 55.0873 121.754 55.0132C121.628 54.9436 121.489 54.8864 121.34 54.8415C121.191 54.7966 121.017 54.7742 120.822 54.7742C120.61 54.7742 120.409 54.8179 120.22 54.9055C120.03 54.993 119.864 55.1221 119.722 55.2927C119.581 55.4633 119.472 55.6778 119.394 55.9359C119.315 56.1941 119.276 56.4848 119.276 56.8081C119.276 57.1516 119.317 57.4479 119.4 57.6971C119.483 57.944 119.596 58.1528 119.738 58.3234C119.876 58.4896 120.039 58.6153 120.226 58.7006C120.413 58.7837 120.612 58.8252 120.822 58.8252C121.013 58.8252 121.191 58.8016 121.353 58.7544C121.516 58.7073 121.661 58.6478 121.788 58.576C121.911 58.5064 122.017 58.4357 122.106 58.3638C122.195 58.2898 122.265 58.2269 122.317 58.1753H122.367V58.97C122.257 59.0216 122.154 59.071 122.056 59.1182C121.96 59.1653 121.843 59.2113 121.704 59.2562C121.559 59.3033 121.424 59.3393 121.3 59.364C121.177 59.3887 121.017 59.401 120.818 59.401ZM123.44 59.3101H122.811V54.0703H123.44V59.3101ZM127.3 57.4311C127.3 58.0642 127.148 58.5536 126.845 58.8993C126.542 59.2427 126.138 59.4145 125.635 59.4145C125.115 59.4145 124.706 59.2371 124.407 58.8825C124.111 58.5255 123.962 58.0417 123.962 57.4311C123.962 56.8025 124.115 56.3142 124.42 55.9662C124.728 55.6182 125.133 55.4442 125.635 55.4442C126.138 55.4442 126.542 55.6182 126.845 55.9662C127.148 56.312 127.3 56.8002 127.3 57.4311ZM126.651 57.4311C126.651 56.9439 126.563 56.5825 126.387 56.3467C126.211 56.1088 125.96 55.9898 125.635 55.9898C125.307 55.9898 125.054 56.1088 124.875 56.3467C124.699 56.5825 124.611 56.9439 124.611 57.4311C124.611 57.9025 124.699 58.2606 124.875 58.5053C125.054 58.7478 125.307 58.869 125.635 58.869C125.958 58.869 126.207 58.75 126.383 58.512C126.562 58.2718 126.651 57.9115 126.651 57.4311ZM130.718 59.3101H130.089V58.8925C129.896 59.0631 129.711 59.1933 129.537 59.2831C129.363 59.3707 129.17 59.4145 128.956 59.4145C128.793 59.4145 128.639 59.3876 128.494 59.3337C128.351 59.2798 128.226 59.1945 128.12 59.0778C128.013 58.961 127.929 58.814 127.869 58.6366C127.811 58.4593 127.782 58.2438 127.782 57.99V55.5487H128.411V57.6904C128.411 57.8902 128.417 58.0563 128.431 58.1887C128.446 58.3189 128.48 58.4334 128.53 58.5322C128.582 58.6287 128.651 58.6995 128.738 58.7444C128.827 58.7893 128.954 58.8117 129.12 58.8117C129.273 58.8117 129.437 58.768 129.611 58.6804C129.785 58.5929 129.944 58.4851 130.089 58.3571V55.5487H130.718V59.3101ZM134.367 59.3101H133.738V58.9262C133.64 59.0093 133.555 59.0778 133.484 59.1316C133.413 59.1855 133.329 59.2349 133.233 59.2798C133.144 59.3225 133.052 59.355 132.956 59.3775C132.86 59.4022 132.748 59.4145 132.621 59.4145C132.418 59.4145 132.23 59.3718 132.056 59.2865C131.884 59.2012 131.738 59.0767 131.617 58.9127C131.495 58.7466 131.4 58.5423 131.333 58.2999C131.267 58.0551 131.233 57.7745 131.233 57.458C131.233 57.128 131.276 56.8429 131.36 56.6027C131.445 56.3602 131.562 56.1492 131.711 55.9696C131.848 55.8057 132.011 55.6778 132.203 55.5857C132.397 55.4914 132.6 55.4442 132.812 55.4442C132.999 55.4442 133.162 55.4656 133.3 55.5082C133.438 55.5487 133.585 55.6127 133.738 55.7002V54.0703H134.367V59.3101ZM133.738 58.3942V56.2255C133.582 56.1492 133.441 56.0964 133.317 56.0673C133.194 56.038 133.061 56.0235 132.915 56.0235C132.592 56.0235 132.339 56.1458 132.157 56.3905C131.974 56.633 131.882 56.9843 131.882 57.4445C131.882 57.8868 131.952 58.2258 132.093 58.4615C132.233 58.695 132.459 58.8117 132.768 58.8117C132.933 58.8117 133.1 58.7747 133.267 58.7006C133.434 58.6242 133.591 58.5221 133.738 58.3942Z" fill="white"/>
<path d="M134.711 58.9228C134.711 58.8016 134.753 58.6961 134.839 58.6063C134.925 58.5164 135.034 58.4714 135.168 58.4714C135.3 58.4714 135.409 58.5164 135.494 58.6063C135.581 58.6961 135.625 58.8016 135.625 58.9228C135.625 59.042 135.581 59.1475 135.494 59.2394C135.409 59.3292 135.3 59.3742 135.168 59.3742C135.034 59.3742 134.925 59.3292 134.839 59.2394C134.753 59.1475 134.711 59.042 134.711 58.9228ZM134.836 54.8574H135.497L135.462 56.0621L135.372 56.9649L135.351 57.9878H134.979L134.958 56.9649L134.871 56.0621L134.836 54.8574Z" fill="white"/>
<path d="M14.5664 51.0346V32.3008H24.3775V34.3354H16.7777V39.7099H24.3775V41.7829H16.7777V48.9616H24.3775V51.0346H14.5664ZM36.832 45.2891C36.832 43.9668 36.472 42.9047 35.7518 42.1028C35.0401 41.2924 34.1081 40.8871 32.9559 40.8871C31.7613 40.8871 30.8293 41.2582 30.16 42.0004C29.4907 42.7426 29.156 43.7791 29.156 45.11C29.156 46.5261 29.4907 47.618 30.16 48.3858C30.8378 49.1536 31.7952 49.5375 33.0322 49.5375C34.2183 49.5375 35.146 49.1664 35.8154 48.4242C36.4931 47.6735 36.832 46.6284 36.832 45.2891ZM38.7638 39.326V51.0346H36.832V48.9104C36.3661 49.7635 35.7687 50.4162 35.0401 50.8683C34.32 51.3119 33.5109 51.5337 32.6128 51.5337C30.9437 51.5337 29.5965 50.9579 28.5714 49.8062C27.5547 48.646 27.0463 47.1147 27.0463 45.2123C27.0463 43.2843 27.542 41.7531 28.5333 40.6184C29.5246 39.4753 30.8505 38.9037 32.5111 38.9037C33.4854 38.9037 34.3285 39.1255 35.0401 39.5691C35.7603 40.0042 36.3407 40.6568 36.7812 41.527V39.326H38.7638ZM41.5215 49.064L43.2245 47.9124C43.5465 48.5351 43.9531 49.0043 44.4446 49.32C44.9359 49.6271 45.5163 49.7806 46.1857 49.7806C46.838 49.7806 47.3633 49.6185 47.7615 49.2944C48.1682 48.9702 48.3715 48.5436 48.3715 48.0147C48.3715 47.6052 48.2317 47.264 47.9522 46.991C47.6811 46.718 47.2108 46.4664 46.5415 46.236L46.2111 46.1209C43.3813 45.1398 41.9663 43.9113 41.9663 42.4355C41.9663 41.3947 42.3476 40.5459 43.1102 39.8891C43.8726 39.2322 44.8639 38.9037 46.0839 38.9037C47.0922 38.9037 47.9564 39.1084 48.6765 39.518C49.3967 39.9189 49.9135 40.4904 50.227 41.2326L48.613 42.2308C48.3758 41.6933 48.0241 41.2795 47.5582 40.9895C47.1006 40.6995 46.5669 40.5544 45.9569 40.5544C45.3723 40.5544 44.8936 40.7208 44.5208 41.0535C44.1565 41.3777 43.9743 41.7957 43.9743 42.3075C43.9743 43.0242 44.7453 43.6255 46.2873 44.1118C46.5754 44.2057 46.8041 44.2782 46.9736 44.3293C48.236 44.7388 49.1129 45.208 49.6043 45.737C50.1041 46.2573 50.3541 46.9484 50.3541 47.81C50.3541 48.919 49.9601 49.819 49.1722 50.51C48.3927 51.1924 47.3718 51.5337 46.1094 51.5337C45.0249 51.5337 44.1014 51.329 43.3389 50.9195C42.5848 50.51 41.9791 49.8915 41.5215 49.064ZM52.8831 56.7418L56.0349 49.883L51.4724 39.326H53.7727L57.1532 47.7332L60.7371 39.326H62.923L55.1198 56.7418H52.8831Z" fill="white"/>
</g>
<defs>
<clipPath id="clip0_412_1085">
<rect width="150" height="80" fill="white"/>
</clipPath>
</defs>
</svg>
