<svg width="34" height="34" viewBox="0 0 34 34" fill="none" xmlns="http://www.w3.org/2000/svg">
<rect width="34" height="34" rx="17" fill="#2957A4" fill-opacity="0.15"/>
<path d="M19.5 9.49984V16.9998C19.5 17.9165 18.75 18.6665 17.8333 18.6665H8.66663V11.9998C8.66663 10.1582 10.1583 8.6665 12 8.6665H18.6666C19.125 8.6665 19.5 9.0415 19.5 9.49984Z" fill="#2957A4"/>
<path opacity="0.4" d="M25.3333 18.6665V21.1665C25.3333 22.5498 24.2166 23.6665 22.8333 23.6665H22C22 22.7498 21.25 21.9998 20.3333 21.9998C19.4166 21.9998 18.6666 22.7498 18.6666 23.6665H15.3333C15.3333 22.7498 14.5833 21.9998 13.6666 21.9998C12.75 21.9998 12 22.7498 12 23.6665H11.1666C9.78329 23.6665 8.66663 22.5498 8.66663 21.1665V18.6665H17.8333C18.75 18.6665 19.5 17.9165 19.5 16.9998V11.1665H21.0333C21.6333 11.1665 22.1833 11.4915 22.4833 12.0082L23.9083 14.4998H22.8333C22.375 14.4998 22 14.8748 22 15.3332V17.8332C22 18.2915 22.375 18.6665 22.8333 18.6665H25.3333Z" fill="#2957A4"/>
<path d="M13.6667 25.3333C14.5871 25.3333 15.3333 24.5871 15.3333 23.6667C15.3333 22.7462 14.5871 22 13.6667 22C12.7462 22 12 22.7462 12 23.6667C12 24.5871 12.7462 25.3333 13.6667 25.3333Z" fill="#2957A4"/>
<path d="M20.3333 25.3333C21.2538 25.3333 22 24.5871 22 23.6667C22 22.7462 21.2538 22 20.3333 22C19.4128 22 18.6666 22.7462 18.6666 23.6667C18.6666 24.5871 19.4128 25.3333 20.3333 25.3333Z" fill="#2957A4"/>
<path d="M25.3333 17.4417V18.6667H22.8333C22.375 18.6667 22 18.2917 22 17.8333V15.3333C22 14.875 22.375 14.5 22.8333 14.5H23.9083L25.1167 16.6166C25.2583 16.8666 25.3333 17.15 25.3333 17.4417Z" fill="#2957A4"/>
</svg>
