<svg width="34" height="34" viewBox="0 0 34 34" fill="none" xmlns="http://www.w3.org/2000/svg">
<rect width="34" height="34" rx="17" fill="#2957A4" fill-opacity="0.15"/>
<path opacity="0.5" d="M13.0375 8.6665H20.9625C21.9282 8.6665 22.4111 8.6665 22.8005 8.80201C23.539 9.05897 24.1187 9.65583 24.3683 10.4161C24.5 10.817 24.5 11.314 24.5 12.3082V23.9783C24.5 24.6935 23.6792 25.073 23.1599 24.5978C22.8548 24.3187 22.3952 24.3187 22.0901 24.5978L21.6875 24.9663C21.1528 25.4555 20.3472 25.4555 19.8125 24.9663C19.2778 24.477 18.4722 24.477 17.9375 24.9663C17.4028 25.4555 16.5972 25.4555 16.0625 24.9663C15.5278 24.477 14.7222 24.477 14.1875 24.9663C13.6528 25.4555 12.8472 25.4555 12.3125 24.9663L11.9099 24.5978C11.6049 24.3187 11.1451 24.3187 10.8401 24.5978C10.3208 25.073 9.5 24.6935 9.5 23.9783V12.3082C9.5 11.314 9.5 10.817 9.63162 10.4161C9.88123 9.65583 10.461 9.05897 11.1995 8.80201C11.5889 8.6665 12.0718 8.6665 13.0375 8.6665Z" fill="#2957A4"/>
<path d="M12.8334 12.625C12.4882 12.625 12.2084 12.9048 12.2084 13.25C12.2084 13.5952 12.4882 13.875 12.8334 13.875H13.25C13.5952 13.875 13.875 13.5952 13.875 13.25C13.875 12.9048 13.5952 12.625 13.25 12.625H12.8334Z" fill="#2957A4"/>
<path d="M15.75 12.625C15.4048 12.625 15.125 12.9048 15.125 13.25C15.125 13.5952 15.4048 13.875 15.75 13.875H21.1667C21.5118 13.875 21.7917 13.5952 21.7917 13.25C21.7917 12.9048 21.5118 12.625 21.1667 12.625H15.75Z" fill="#2957A4"/>
<path d="M12.8334 15.5415C12.4882 15.5415 12.2084 15.8213 12.2084 16.1665C12.2084 16.5117 12.4882 16.7915 12.8334 16.7915H13.25C13.5952 16.7915 13.875 16.5117 13.875 16.1665C13.875 15.8213 13.5952 15.5415 13.25 15.5415H12.8334Z" fill="#2957A4"/>
<path d="M15.75 15.5415C15.4048 15.5415 15.125 15.8213 15.125 16.1665C15.125 16.5117 15.4048 16.7915 15.75 16.7915H21.1667C21.5118 16.7915 21.7917 16.5117 21.7917 16.1665C21.7917 15.8213 21.5118 15.5415 21.1667 15.5415H15.75Z" fill="#2957A4"/>
<path d="M12.8334 18.4585C12.4882 18.4585 12.2084 18.7383 12.2084 19.0835C12.2084 19.4287 12.4882 19.7085 12.8334 19.7085H13.25C13.5952 19.7085 13.875 19.4287 13.875 19.0835C13.875 18.7383 13.5952 18.4585 13.25 18.4585H12.8334Z" fill="#2957A4"/>
<path d="M15.75 18.4585C15.4048 18.4585 15.125 18.7383 15.125 19.0835C15.125 19.4287 15.4048 19.7085 15.75 19.7085H21.1667C21.5118 19.7085 21.7917 19.4287 21.7917 19.0835C21.7917 18.7383 21.5118 18.4585 21.1667 18.4585H15.75Z" fill="#2957A4"/>
</svg>
